<?xml version="1.0" encoding="UTF-8"?>
<svg xmlns="http://www.w3.org/2000/svg" viewBox="0 0 458.88 458.88">
  <!-- Eliminamos <defs> y <style> -->
  
  <g id="Colores">
    <polygon fill="#684a49" points="103.82 211.47 105.95 216.97 107.36 224.02 109.51 234.31 111.56 243.81 113.9 254.1 115.87 262.22 117.72 269.25 119.27 274.49 121.29 279.91 122.42 281.61 124.58 282.15 126.18 281.59 126.82 280.24 126.82 278.49 126.69 277.36 126.13 275.18 125.2 272.55 124.49 270.42 123.29 266.13 121.99 261.47 121.04 258.04 120.11 254.74 119.14 251.24 118.16 247.74 116.9 243.23 115.65 238.75 114.7 235.35 113.38 230.64 112.32 226.83 111.29 223.15 110.36 219.82 109.26 215.86 108.26 212.12 108.14 211.19 103.82 211.47"/>
    <path fill="#e5e007" d="M103.52,211.19l-2.09-.85-3.46-1.63-2.72-1.28-2.43-1.14-2.2-1.04-2.27-1.07-2.94-1.39-2.66-1.39-1.08-.78-2.01-1.54-1.81-1.49-1.96-1.75-1.66-1.61-1.2-1.25-1.48-1.7-1.5-1.94-1.27-1.94-1.18-2.33-.77-2.08.07-2.06.81-1.83,1.52-1.11,2.32-.54h1.93l2.42.33,2.2.53,3.37,1.13,3.71,1.6,3.06,1.58,3.04,1.78,2.53,1.65,2.58,1.98,1.67,1.6,1.71,1.97,1.29,1.78,1.92,3.33,1.6,3.85.93,3.21.38,1.82.15.89s.08-1.09.66-2.05,1.58-2.46,1.58-2.46l1.51-2.07,1.65-2.13,2.23-2.76,1.95-2.33,1.77-2.08,2.06-2.38,1.77-2.01,1.6-1.8,2.02-2.24,2.35-1.68,3.03-1.99,4.18-2.42,3.52-1.75,2.77-1.17,3.78-1.27,2.59-.61,3.7-.36,2.97.43,1.8.92,1.52,2.14.3,2.85-1.23,4.01-2.54,4.5-2.92,3.83-4.11,4.4-3.97,3.6-3.61,2.87-5.25,2.55-5.26,2.27-4.7,1.86-3.04,1.1-5.13,1.61-2.53.63-2.65.49-1.71.17s-4.39,1.16-5.17.02Z"/>
    <path fill="none" stroke="#1d1d1b" stroke-miterlimit="10" d="M175.85,221.94c.25-2.59,15.01-16.68,15.01-16.68,10.49-6.72,21.05-8.97,23.57-5.02s-3.93,12.59-14.42,19.31c0,0-15.77,6.47-22.83,6.12l.5,3.08,8.69,42.03c3.54,10.57-2.26,7.2-2.26,7.2-3.1-2.64-8.82-48.18-8.82-48.18l-1.28-4.14-14.52-8.1c-8.18-6.53-12.87-14.25-10.48-17.25s10.96-.13,19.14,6.4c5.96,4.76,7.52,11.94,7.75,15.85"/>
    <path fill="#e5e007" stroke="#1d1d1b" stroke-miterlimit="10" d="M178.85,225.65l1.96-.22,1.88-.34,3.84-.92,2.28-.66,3.54-1.13,3.97-1.4,3.97-1.6,2.79-1.92,3.09-2.43,3.23-3.01,2.33-2.66,2.09-3.17,1.1-2.88-.08-2.11-1-1.64-1.27-.76-2.15-.46-2.73.08-1.93.32-2.84.74-2.09.72-2.67,1.1-3.18,1.56-2.32,1.3-1.81,1.11-1.59,1.54-1.26,1.24-1.4,1.39-1.63,1.64-1.4,1.44-1.54,1.61-1.78,1.91-1.31,1.47-1.21,1.44s-.81,1.05-1.28,1.72-.4.56-.4.56l-.25.25-.19-1.35-.52-2.4-.98-2.9-1.24-2.54-.85-1.37-1.15-1.53-1.14-1.25-1.79-1.58-1.77-1.34-2.13-1.46-2.16-1.31-2.63-1.36-2.42-1-1.59-.5-1.75-.36-1.41-.1-1.73.28-1.17.73-.69,1.3-.15,1.51.46,1.56.75,1.77.84,1.49,1,1.5,1,1.32.81.98,1.14,1.26,1.35,1.38,1.25,1.18,1.4,1.23.75.62,1.88,1.15,2.09,1.16,1.61.9,1.56.87,1.72.96,1.93,1.08,2.45,1.37,1.49.73,1.49,4.36.68,5.24,1.05,7.64,1.03,7.06,1.2,7.66,1.03,6.05,1,5.24.87,3.91,1.21,4.08.75,1.3,1.55.5,1.2-.33.54-.95.09-1.28-.04-.84-.3-1.62-.55-1.97-.41-1.6-.66-3.2-.72-3.48-.53-2.56-.51-2.47-.54-2.61-.54-2.61-.7-3.37-.69-3.34-.52-2.54-.73-3.51-.59-2.85-.57-2.75-.51-2.48-.61-2.96-.71-2.86-.14-.53,1.06-.33.88.21Z"/>
    <circle fill="#e5e007" cx="195.26" cy="82.22" r="28.54"/>
    <path fill="#70b746" d="M259.59,275.99l-3.44,1.46-2.84,1.05h-10.63s-17.56-.01-17.56-.01h-19.11s-11.67.01-11.67.01l-15.45.34-11.45.45-18.56,1.3-12.44,1.38-15.11,2.37-12.43,2.38-10.4,3.04-12.31,4.24-6.24,4.02s-3.67,4.54-3.6,5.72c0,0-.61,4.08.3,5.09l1.31,3.88,2.69,4.9,4.57-1.68,6.88-2.24,8.6-2.38,6.75-1.56,10.47-1.96,10.4-1.44,13.36-1.2,9.66-.46,14.22-.14,11.44.27,8.45.37,8.78.42,6.55.68,5.7.9,8.05,1.31,5.08.6-2.46,3.24-5.09,6.12-3.65,3.78-5.41,4.56-4.18,2.64-4.19,1.91-3.96,1.15-4.43.59h-3.13l-5.11-.11-6.46-.71-8.35-1.11-5.89-.54-4.3-.08-8.8.71-9.66,1.08-8.82,1.19-9.6,1.52-6.67,1.19-6.63,1.3-4.33.93-1.8,1.21-.12,2.31,1.11,2.26,3.79,4.69,3.53,3.27,3.85,2.67,3.64,1.87,6.5,2.15,4.94.89,5.41.45h7.82l5.96-.31,7.58-.52,7.2-.38,5.33-.05,3.54.14,4.45.45,1.6.25-1.88,2.94-4.72,7.11-2.87,4.92-1.94,4.14-1.28,4.02-.39,4.33.58,2.76,1.75,2.89,2.35,1.97,3.48,1.58,3.48.37,3.27-.77,2.76-1.41,2.75-2.06,1.99-1.88,4.61-5.48,3.85-5.47,4.56-6.39,5.11-6.55,5.47-6.54,4.64-5.22,7.02-7.41,5.81-5.75,5.87-5.48,7.87-6.37,6.23-4.66,6.96-5.35,5.55-4.77,3.93-3.92,4.72-4.07,6.71-4.46,7.64-4.04,11.63-4.94,13.66-4.77,12.98-4.06,12.07-3.77,10.71-3,9.84-2.35,6.25-1.29,6.46-1.06,8.09-.45,7.34-.16,6.56-.51,5.92-1.2,3.48-1.38,2.21-1.92.51-2.12-.5-1.64-2.09-2.78-3.42-2.91-5.32-3.44-5.23-2.79-4.99-2.23-28.67,2.49-5,.36-8.11.32-7.11-.06-6.28-.55-26.65,10.07-9.69,3.84-12.57,4.97-3.36,1.33-7.78,3.19Z"/>
    <polygon fill="#e5e007" points="293.58 263.05 294.49 257.16 294.49 251.49 294.96 244.16 294.98 237.6 294.83 233.6 294.49 230.49 294.24 228.11 294.98 225.94 297.57 222.6 304.24 214.93 312.14 206.94 317.91 201.46 316.88 207.29 314.59 221.92 313.31 231.7 312.53 241.38 312.49 245.61 312.93 249.15 313.9 250.69 316.54 251.94 318.91 252.48 320.69 252.69 293.58 263.05"/>
    <path fill="#e5e007" d="M328.58,194.34l.4,7.87.26,6.07.28,9.18.05,5.62v4.15l-.5,2.81,1.35,3.12,5.01,6.62,3.84,4.29,3.84,4.03,4.33,4.32s24.69-.59,27.35-2.37l-6.83-8.52-7-8.74-5.69-7.09-3.59-4.47-2.8-3.49-1.45-1.8.58-3.32.8-6.35.23-5.11-.37-4.06-.57-1.77s-1.21-2.1-2.19-1.89l-3.7-.65-4.83.14-4.32.55-2.26.39-2.26.47Z"/>
    <path fill="#e5e007" stroke="#443c2c" stroke-miterlimit="10" d="M279.98,215.65l2.88-2.66,2.58-2.94,2.18-2.89,2.53-3.99,2.2-4.28,1.75-4.3,1.83-5.58,2.36-8.23.83-3.76.41-3.03,2.52,4.65,2.8,5.36.69.2,2.53-2.46,17.54-17.04-10.07-22.52s12.23,4.94,14.82,8.06c0,0,4.06,2.62,3.72,7.91,0,0-.95,10.43-1.28,14.88,0,0,.21,5.42,2.84,8.04l2.7,2.67,2.79.79,2.87-1.1,1.66-2.07.8-2.31.71-9.68.28-9.23s-.42-9.88-1.15-12.94c0,0-2.15-8.79-4.69-11.89l-2.28-2.82-4-3.29-8.25-4.46-8.13-3.15-5.63-1.48-5.45-.8-5.42.22-4.85,1.45-4.24,2.32-5.65,4.23-3.87,3.13-4,3.49-.59,1.55.07,2.52,1.65,11.93,1.93,14.94.4,9.7-.37,7.88-1.42,11.78-1.52,21.17Z"/>
    <polygon fill="#e5e007" points="237.31 363.23 229.44 371.34 222.93 379.39 218.38 387.16 216.69 394.2 217.72 398.36 220.32 401.4 223.38 402.84 227 403.08 230.91 401.99 233.88 400.66 237.31 398.68 243.66 394.02 250.8 387.69 259.5 379.64 267.37 372.92 275.79 366.43 283.11 361.41 294.26 354.91 300.83 351.75 308.4 348.64 318.4 345 327.14 342.03 335.88 339.05 346.95 334.94 353.85 332.01 362.23 327.83 368.26 324.24 372.65 321.21 379.03 315.9 381.36 311.88 381.36 308.14 379.56 305.87 375.31 304.13 371.69 303.61 365.02 303.49 356.72 304.7 345.08 307.9 328.58 312.52 313.59 317.09 293.58 324.48 279.32 331.24 264.39 340.61 253.33 349.14 245.04 356.12 237.31 363.23"/>
  </g>
  <g id="Trazos">
    <circle fill="none" stroke="#1d1d1b" stroke-miterlimit="10" cx="195.24" cy="82.05" r="28.89"/>
    <path fill="none" stroke="#1d1d1b" stroke-miterlimit="10" d="M366.53,303.53c-4.68.18-9.08.93-10.88,1.44-28.4,8.01-57.93,14.86-83.44,30.3-11.5,6.96-65.61,48.15-53.86,64.11,8.69,11.8,28.38-7.86,34.68-13.81,14.27-13.48,30.33-26.23,48.44-34.11,25.35-11.02,53.78-15.36,75.45-33.62,1.63-1.38,3.27-2.88,4.07-4.86,3.3-8.22-6.04-9.77-14.46-9.45Z"/>
    <path fill="#e5e007" stroke="#1d1d1b" stroke-miterlimit="10" d="M254.62,113.62c-8.19,1.23-14.02.57-15.02-2.18-1.25-3.45,4.9-8.49,15.54-13.79l.36-.39c3.36-6.68,10.28-11.26,18.27-11.26,2.47,0,4.84.44,7.04,1.24l.97.38c11.01-2.45,19.31-2.19,20.52,1.15.95,2.64-2.74,6.64-9.29,10.75l.32.95c.58,1.89.88,3.89.88,5.97,0,11.29-9.15,20.44-20.44,20.44-8.35,0-16.03-4.93-19.25-12.09l-.45-1.09"/>
    <path fill="none" stroke="#1d1d1b" stroke-miterlimit="10" d="M279.36,135.17c.02-.07.04-.14.07-.21.46-1.27,1.6-2.16,2.69-2.97,8.29-6.2,14.37-13.58,25.75-12.67,9.19.74,19.63,4.94,27.41,9.86,15.07,9.52,12.28,33.37,11.37,48.5-.38,6.26-6.13,9.61-10.53,4.05-7.57-9.6.57-18.93-2.93-27.81-2.17-5.5-12.27-8.76-17.64-11.71l10.07,22.52-20.26,19.68c-.17.16-.46.1-.53-.13-.68-2.2-5-9.55-5.62-10.61,1.18,2.01-3.87,17.28-4.69,19.74-2.86,8.63-7.87,16.49-14.69,22.53.67-10.73,1.53-21.54,2.85-32.22,1.85-14.94-1.56-30.7-3.37-45.48-.13-1.02-.25-2.09.05-3.06Z"/>
    <path fill="#e5e007" stroke="#1d1d1b" stroke-miterlimit="10" d="M253.32,262.18l70.52-72.58v-13.04s-83.56,81.19-91.26,89.48,10.07,7.11,10.07,7.11l3.79-3.9s4.69,3.86,13.15,6.73c.35.12-6.28,2.5-6.28,2.5h-23.88c-45.64,0-95.07-1.24-138.95,13.8-5.78,1.98-12.15,5.05-13.76,10.95-1.34,4.93,1.2,10.03,3.93,14.35,25.03-9.62,52.85-12.99,79.53-13.08,10.36-.04,20.75.35,31.09.99,9.27,0,19.14,2.81,28.35,3.58-7.88,10.6-17.76,22.19-31.44,23.81-12.44,1.47-25.49-3.26-37.61-2.24-17.27,1.44-34.45,3.99-51.4,7.63-.74.16-1.52.34-2.07.87-1.34,1.28-.46,3.54.6,5.06,18.34,26.44,50.01,11.22,75.12,15.57-4.54,7.72-21.15,26.98-8.43,35.08,12.82,8.14,23.29-11.37,28.84-18.96,10.18-13.89,21.85-26.65,34.5-38.32,9.57-8.83,22.1-15.97,30.95-25.33,14.39-15.22,45.54-23.12,64.94-29.35,11.59-3.72,23.4-6.76,35.38-8.91,10.18-1.83,21.14.13,31.15-2.77,18.5-5.36-9.58-19.01-15.37-21.19,0,0-27.35-34.12-27.35-34.12,0,0,3.65-18.03,0-21.59s-18.87,0-18.87,0c0,0,1.78,30.81.59,35.09s18.28,22.98,18.28,22.98c0,0-30.72,2.96-34.14-2.37s4.6-48.59,4.6-48.59c0,0-25.48,23.37-23.7,27.98s0,32.74,0,32.74l-27.88,11.04-.69.36-11.95-11.78"/>
    <path fill="#e5e007" stroke="#1d1d1b" stroke-miterlimit="10" d="M105.98,207.61c.1-3.54,18.84-24.06,18.84-24.06,13.63-10.11,27.76-14.15,31.56-9.02s-4.17,17.47-17.8,27.58c0,0-20.82,10.25-30.44,10.45l.96,4.13,15.72,56.3c5.8,14.03-2.4,9.99-2.4,9.99-4.46-3.3-16.48-64.64-16.48-64.64l-2.13-5.51-20.48-9.65c-11.72-8.11-18.82-18.17-15.85-22.46s14.88-1.2,26.61,6.91c8.55,5.91,11.33,15.52,12.01,20.81"/>
  </g>
</svg>

