<?xml version="1.0" encoding="UTF-8"?>
<svg id="trazos" xmlns="http://www.w3.org/2000/svg" viewBox="0 0 612.36 612.36">
  <circle fill="none" stroke="#1d1d1b" stroke-miterlimit="10" stroke-width="2px" cx="306.1" cy="306.01" r="254.67"/>
  <path fill="none" stroke="#1d1d1b" stroke-miterlimit="10" stroke-width="2px" d="M245.61,498.01c19.2,6.06,39.76,9.4,60.96,9.4,111.49,0,201.86-90.38,201.86-201.86s-90.38-201.86-201.86-201.86-201.86,90.38-201.86,201.86c0,71.45,34.55,132.2,90.56,168.08l2.19,1.47,7.56-19.71S96.08,177.87,359.86,150.18c8.34-.88,16.46,3.03,20.93,10.12,33.49,53.17,156.18,277.71-130.72,319.97l-4.7,18.72"/>
  <path fill="none" stroke="#1d1d1b" stroke-miterlimit="10" stroke-width="2px" d="M239.99,385.46s-55.11-151.11,117.33-187.85c0,0,119.11,179.56-80.59,226.37,0,0,91.26-108.44,56.3-130.37,0,0-18.37-18.11-39.11,12.57l-53.93,79.28Z"/>
</svg>
