<?xml version="1.0" encoding="utf-8"?>
<svg xmlns="http://www.w3.org/2000/svg" viewBox="0 0 612.36 612.36">
  <g id="color">
    <path stroke="none" d="M52.4,304.66c0-140.45,113.86-254.31,254.31-254.31s254.3,113.86,254.3,254.31-114,256.02-254.45,256.02c-62.76,0-120.78-22.29-165.1-60.37-11.52-9.88-22.87-20.95-32.44-32.77-36.02-44.52-56.62-101.5-56.62-162.88ZM509.08,305.23c0-111.38-90.29-201.67-201.68-201.67s-201.67,90.29-201.67,201.67c0,70.92,36.61,133.3,91.96,169.25,6.58,4.27,13.43,8.17,20.51,11.67,8.84,4.37,18.06,8.11,27.58,11.16,19.42,6.23,40.13,9.59,61.62,9.59,111.39,0,201.68-90.29,201.68-201.67Z" style="fill: rgb(18, 179, 9);"/>
    <path stroke="none" d="M363.8,150.14l5.1,1.52c2.62.78,5.09,2.01,7.3,3.63l1.12.82,4.99,6.65,7.36,12.37,9.1,16.71,8.3,16.97,7.25,16.74,9.38,25.94,4.57,16.01,4.49,21.35,1.62,11.75,1.07,14.35v13.57l-.91,12.01-1.58,10.46-2.73,11.75-8.82,22.88-7.04,12.25-10.21,13.59-15.36,15.28-15.91,11.98-16.85,9.96-13.68,6.62-18.76,7.45-21.92,6.87-19.97,4.92-12.33,2.5-19.32,3.24-3.36,13.36-3.38,13.26-27.78-12.33-20.67-14.44,6.71-15.76,3.44-8.98-1.98-5.46-2.57-7.73-2.94-9.72-3.63-13.5-2.56-10.86-2.62-12.85-2.42-14.49-1.42-10.87-1.08-10.88-.83-13.33-.22-8.46.09-11.34.53-10.63,1.15-12.07,2.32-14.86,2.4-10.84,3.77-13.03,5.31-13.97,4.53-9.6,6.38-11.21,7.57-10.95,8.71-10.4,10.94-10.73,8.59-7.04,14.49-9.85,25.69-12.83,20.88-7.33,22.02-5.51,22.54-3.78,9.88-.85,3.26-.28Z" style="fill: rgb(18, 179, 9);"/>
  </g>
  <g id="trazos">
    <circle fill="none" stroke="#1d1d1b" stroke-width="2" stroke-miterlimit="10" cx="306.1" cy="306.01" r="254.67"/>
    <path fill="none" stroke="#1d1d1b" stroke-width="2" stroke-miterlimit="10" d="M245.61,498.01c19.2,6.06,39.76,9.4,60.96,9.4,111.49,0,201.86-90.38,201.86-201.86s-90.38-201.86-201.86-201.86-201.86,90.38-201.86,201.86c0,71.45,34.55,132.2,90.56,168.08l2.19,1.47,7.56-19.71S96.08,177.87,359.86,150.18c8.34-.88,16.46,3.03,20.93,10.12,33.49,53.17,156.18,277.71-130.72,319.97l-4.7,18.72"/>
    <path stroke-width="2" stroke-miterlimit="10" d="M239.99,385.46s-55.11-151.11,117.33-187.85c0,0,119.11,179.56-80.59,226.37,0,0,91.26-108.44,56.3-130.37,0,0-18.37-18.11-39.11,12.57l-53.93,79.28Z" style="stroke: rgb(0, 0, 0); fill: rgb(255, 255, 255);"/>
  </g>
</svg>